<svg width="169" height="56" viewBox="0 0 169 56" fill="none" xmlns="http://www.w3.org/2000/svg">
<g clip-path="url(#clip0_3643_63988)">
<rect width="56" height="56" fill="#F7F7F7"/>
<path d="M55.2504 56H0.765198C0.343558 56 0 55.6564 0 55.2348V0.765198C0 0.343558 0.343558 0 0.765198 0H55.2504C55.6721 0 56.0156 0.343558 56.0156 0.765198V55.2504C56 55.6721 55.6721 56 55.2504 56Z" fill="#E93A3F"/>
<path d="M17.6941 36.9952C17.6941 34.1999 19.4587 32.7944 21.0204 31.6388C21.0204 31.6388 21.3327 31.4046 21.77 31.0766C22.4258 30.5769 22.8631 30.8736 23.0817 31.061C23.3472 31.2953 29.3282 37.6199 29.3282 37.6199C29.6718 37.979 29.6093 38.3851 29.2658 38.7442C27.5792 40.5245 25.9395 41.7738 23.3628 41.7738C19.9116 41.7738 17.6941 39.4314 17.6941 36.9952ZM24.2686 13.6801C25.9551 13.6645 28.4225 15.273 28.4225 17.3812C28.4225 19.099 27.6104 20.4888 25.7833 21.8787C25.7833 21.8787 24.6121 22.7688 24.2217 23.003C23.8938 23.206 23.2691 23.2685 22.8631 22.9249C22.2541 22.394 19.6774 20.1765 19.6774 17.3968C19.6774 15.0231 21.6763 13.6957 23.8313 13.6957L24.2686 13.6801ZM44.5229 45.5686C44.0544 45.1001 37.9172 38.5725 37.6673 38.3226C37.2613 37.8853 37.4019 37.6199 37.5893 37.3856C37.7766 37.1358 43.0549 31.2016 43.7733 30.3739C44.4604 29.5931 44.3043 28.9684 43.258 29.0153C42.8051 29.0309 38.5262 29.0465 38.5262 29.0465C38.1671 29.0465 37.9953 29.0778 37.7142 29.3745C37.7142 29.3745 34.4191 32.9194 33.9663 33.4035C33.529 33.8876 33.1855 33.8407 32.717 33.3098C32.3578 32.8881 27.5792 27.9065 27.5792 27.9065C27.4543 27.766 26.9858 27.2975 27.5948 26.829C27.9696 26.5479 28.8129 25.8452 28.8129 25.8452C32.3422 23.1592 34.06 20.4263 34.06 17.4749C34.06 12.0716 29.8904 8.29248 23.925 8.29248C19.1152 8.29248 13.993 11.6031 13.993 17.7403C13.993 21.1447 16.2886 23.8619 18.1314 25.7515C18.1314 25.7515 18.1626 25.7671 18.5842 26.2356C19.0215 26.7197 18.2407 27.1413 18.2407 27.1413C14.0399 30.2646 12.0254 32.8725 12.0254 37.4793C12.0254 42.3047 15.8201 47.1926 23.0817 47.1926C26.6579 47.1926 29.9217 45.6466 33.0449 42.4297C33.2323 42.2891 33.5602 41.93 34.0131 42.3672C34.4816 42.8045 37.9016 46.4274 37.9016 46.4274C37.9016 46.4274 38.1671 46.771 38.7292 46.7866H43.7733C43.8045 46.7866 44.1949 46.8022 44.4916 46.5992C44.9289 46.3025 44.7415 45.7872 44.5229 45.5686Z" fill="white"/>
</g>
<path d="M84.0919 16.9158C85.577 16.842 87.0049 18.141 87.1334 19.1447C87.1763 19.3514 87.1905 19.499 87.0049 19.6171C86.8621 19.7056 86.5194 19.6614 86.5051 19.6761C86.5051 19.6761 81.8643 19.6466 81.6643 19.6614H81.136C80.9504 19.6614 81.0075 19.3957 81.0218 19.2185C81.0646 18.879 81.75 17.0339 84.0919 16.9158ZM84.0919 14.7607C81.0075 14.7607 78.5371 17.0044 78.5371 20.5618C78.5371 24.1044 81.0218 26.4219 84.0919 26.4219C85.9197 26.4219 87.6332 25.8314 88.6613 24.2668C88.7042 24.2077 88.7613 24.1044 88.847 23.9273C88.9327 23.7354 88.8755 23.4844 88.6613 23.3811C88.1616 23.1302 87.6761 22.835 87.3048 22.7907C87.1763 22.7759 87.0763 22.8645 86.9906 22.9531C86.9478 22.9973 86.8764 23.0711 86.7479 23.2187C86.1339 24.0011 85.2485 24.2815 84.2061 24.2815C82.5497 24.2815 81.2645 23.514 80.9504 21.9345C80.9075 21.6393 80.9361 21.5508 81.0075 21.5065C81.1646 21.4474 81.2645 21.4917 81.3074 21.477C81.3074 21.477 88.7899 21.5065 89.104 21.4622C89.2611 21.4474 89.4467 21.2998 89.4896 21.1375C89.5038 21.0489 89.5324 20.6651 89.5324 20.5765C89.5181 17.0044 87.1763 14.7607 84.0919 14.7607Z" fill="#2C383F"/>
<path d="M102.469 37.8133C103.954 37.7395 105.382 39.0385 105.51 40.0422C105.553 40.2488 105.568 40.3965 105.382 40.5145C105.239 40.6031 104.896 40.5588 104.882 40.5736C104.882 40.5736 100.241 40.5441 100.041 40.5588H99.5129C99.3273 40.5588 99.3844 40.2931 99.3987 40.116C99.4416 39.7913 100.127 37.9461 102.469 37.8133ZM102.469 35.6582C99.3844 35.6582 96.9141 37.9019 96.9141 41.4592C96.9141 45.0019 99.3987 47.3193 102.469 47.3193C104.297 47.3193 106.01 46.7289 107.038 45.1642C107.081 45.1052 107.138 45.0019 107.224 44.8247C107.31 44.6328 107.252 44.3819 107.038 44.2786C106.539 44.0276 106.053 43.7324 105.682 43.6881C105.553 43.6734 105.453 43.7619 105.368 43.8505C105.325 43.8948 105.253 43.9686 105.125 44.1162C104.511 44.8985 103.625 45.179 102.583 45.179C100.927 45.179 99.6415 44.4114 99.3273 42.832C99.2845 42.5368 99.313 42.4482 99.3844 42.4039C99.5415 42.3449 99.6415 42.3892 99.6843 42.3744C99.6843 42.3744 107.167 42.4039 107.481 42.3597C107.638 42.3449 107.824 42.1973 107.867 42.0349C107.881 41.9464 107.909 41.5626 107.909 41.474C107.895 37.9166 105.553 35.6582 102.469 35.6582Z" fill="#2C383F"/>
<path d="M138.34 37.8133C139.825 37.7395 141.253 39.0385 141.381 40.0422C141.424 40.2488 141.439 40.3965 141.253 40.5145C141.11 40.6031 140.767 40.5588 140.753 40.5736C140.753 40.5736 136.112 40.5441 135.912 40.5588H135.384C135.198 40.5588 135.256 40.2931 135.27 40.116C135.313 39.7913 135.998 37.9461 138.34 37.8133ZM138.34 35.6582C135.256 35.6582 132.785 37.9019 132.785 41.4592C132.785 45.0019 135.27 47.3193 138.34 47.3193C140.168 47.3193 141.881 46.7289 142.909 45.1642C142.952 45.1052 143.009 45.0019 143.095 44.8247C143.181 44.6328 143.124 44.3819 142.909 44.2786C142.41 44.0276 141.924 43.7324 141.553 43.6881C141.424 43.6734 141.324 43.7619 141.239 43.8505C141.196 43.8948 141.124 43.9686 140.996 44.1162C140.382 44.8985 139.497 45.179 138.454 45.179C136.798 45.179 135.513 44.4114 135.198 42.832C135.156 42.5368 135.184 42.4482 135.256 42.4039C135.413 42.3449 135.513 42.3892 135.555 42.3744C135.555 42.3744 143.038 42.4039 143.352 42.3597C143.509 42.3449 143.695 42.1973 143.738 42.0349C143.752 41.9464 143.78 41.5626 143.78 41.474C143.766 37.9166 141.424 35.6582 138.34 35.6582Z" fill="#2C383F"/>
<path d="M113.18 16.9158C114.665 16.842 116.093 18.141 116.221 19.1447C116.264 19.3514 116.278 19.499 116.093 19.6171C115.95 19.7056 115.607 19.6614 115.593 19.6761C115.593 19.6761 110.952 19.6466 110.752 19.6614H110.224C110.038 19.6614 110.095 19.3957 110.11 19.2185C110.152 18.879 110.824 17.0339 113.18 16.9158ZM113.18 14.7607C110.095 14.7607 107.625 17.0044 107.625 20.5618C107.625 24.1044 110.11 26.4219 113.18 26.4219C115.008 26.4219 116.721 25.8314 117.749 24.2668C117.792 24.2077 117.849 24.1044 117.935 23.9273C118.021 23.7354 117.963 23.4844 117.749 23.3811C117.249 23.1302 116.764 22.835 116.393 22.7907C116.264 22.7759 116.164 22.8645 116.079 22.9531C116.036 22.9973 115.964 23.0711 115.836 23.2187C115.222 24.0011 114.336 24.2815 113.294 24.2815C111.638 24.2815 110.352 23.514 110.038 21.9345C109.995 21.6393 110.024 21.5508 110.095 21.5065C110.252 21.4474 110.352 21.4917 110.395 21.477C110.395 21.477 117.878 21.5065 118.192 21.4622C118.349 21.4474 118.535 21.2998 118.577 21.1375C118.592 21.0489 118.62 20.6651 118.62 20.5765C118.592 17.0044 116.264 14.7607 113.18 14.7607Z" fill="#2C383F"/>
<path d="M96.5159 24.0158C94.7024 24.0158 93.2745 22.5988 93.2745 20.547C93.2745 18.4805 94.7167 17.152 96.5159 17.152C98.1438 17.152 99.8288 18.3476 99.8288 20.547C99.8288 22.7316 98.2723 24.0158 96.5159 24.0158ZM102.228 8.91541C102.228 8.78256 102.228 8.81208 102.228 8.72352C102.213 8.48734 102.042 8.35449 101.799 8.35449H100.3C100.057 8.35449 99.8859 8.53162 99.8716 8.73828C99.8716 8.85636 99.8716 8.8416 99.8716 8.90065V16.6058C99.2005 15.3807 97.744 14.7607 96.2161 14.7607C93.303 14.7607 90.8184 17.0044 90.8184 20.6061C90.8184 24.1192 93.303 26.4219 96.2161 26.4219C97.7011 26.4219 99.2005 25.7576 99.8716 24.5472C99.8716 24.5472 99.8716 25.3591 99.8716 25.5657C99.8716 26.1709 100.129 26.2004 100.571 26.1857C100.871 26.1857 101.628 26.1857 101.628 26.1857C102.085 26.1857 102.228 25.92 102.228 25.7429C102.228 25.6986 102.228 8.91541 102.228 8.91541Z" fill="#2C383F"/>
<path d="M106.413 8.82684V8.81208V8.79732C106.413 8.51686 106.213 8.35449 105.97 8.35449H104.542C104.485 8.35449 104.499 8.35449 104.356 8.36925C104.185 8.38401 104.028 8.54638 104.028 8.70875C104.014 8.87112 104.028 8.81208 104.028 8.93017C104.028 8.93017 104.028 25.3295 104.028 25.7281C104.028 26.0971 104.342 26.2004 104.513 26.2004C104.699 26.2004 105.884 26.2004 105.984 26.2004C106.198 26.2004 106.427 26.0085 106.427 25.7871C106.413 25.5067 106.413 8.82684 106.413 8.82684Z" fill="#2C383F"/>
<path d="M129.259 15.026C128.559 14.9817 128.074 14.9521 127.703 14.9521C127.374 14.9521 127.217 15.0702 127.103 15.395C127.089 15.4245 124.218 22.6573 124.218 22.6573C124.218 22.6573 121.662 15.705 121.477 15.3802C121.248 14.9669 120.891 15.0112 120.834 15.0112C120.777 15.0112 120.763 15.0112 120.563 15.0112C120.563 15.0112 119.435 14.9964 119.206 15.0112C119.121 15.0112 119.049 15.0702 118.978 15.1293C118.878 15.2326 118.835 15.3802 118.878 15.5573C118.935 15.7788 122.933 25.6538 122.933 25.6538C122.933 25.6538 121.091 30.3035 121.077 30.3478C121.034 30.4954 121.077 30.6578 121.191 30.7906C121.291 30.9087 121.377 30.9235 121.548 30.9235C121.548 30.9235 122.79 30.9382 122.819 30.9382C123.233 30.9382 123.433 30.7168 123.533 30.4954C123.961 29.5359 129.373 15.9707 129.488 15.6754C129.63 15.3655 129.602 15.0407 129.259 15.026Z" fill="#2C383F"/>
<path d="M148.847 35.8943C148.847 35.8943 148.847 32.3074 148.847 32.086C148.847 31.8646 148.705 31.6579 148.419 31.6579C148.133 31.6579 147.162 31.6432 146.891 31.6579C146.577 31.6727 146.448 31.8793 146.448 32.145C146.448 32.3665 146.463 35.8943 146.463 35.8943C146.463 35.8943 145.092 35.8795 144.878 35.8943C144.606 35.9091 144.506 36.1452 144.506 36.3224C144.506 36.6176 144.492 37.2228 144.492 37.5033C144.492 37.8132 144.635 37.9313 144.921 37.9313C145.206 37.9313 146.463 37.9313 146.463 37.9313C146.463 37.9313 146.463 46.2712 146.463 46.6403C146.463 46.8912 146.72 47.0683 146.877 47.0683C147.063 47.0683 148.305 47.0683 148.405 47.0683C148.676 47.0536 148.833 46.8469 148.847 46.655C148.862 46.4336 148.847 37.9313 148.847 37.9313L150.661 37.9461C151.032 37.9608 151.132 37.6656 151.132 37.4294C151.146 37.1933 151.118 36.3371 151.118 36.3371C151.118 36.0419 150.889 35.8943 150.618 35.8943" fill="#2C383F"/>
<path d="M156.445 35.8943C156.445 35.8943 156.445 32.3074 156.445 32.086C156.445 31.8646 156.302 31.6579 156.017 31.6579C155.731 31.6579 154.76 31.6432 154.489 31.6579C154.175 31.6727 154.046 31.8793 154.046 32.145C154.046 32.3665 154.06 35.8943 154.06 35.8943C154.06 35.8943 152.69 35.8795 152.475 35.8943C152.204 35.9091 152.104 36.1452 152.104 36.3224C152.104 36.6176 152.09 37.2228 152.09 37.5033C152.09 37.8132 152.233 37.9313 152.518 37.9313C152.804 37.9313 154.06 37.9313 154.06 37.9313C154.06 37.9313 154.06 46.2712 154.06 46.6403C154.06 46.8912 154.317 47.0683 154.475 47.0683C154.66 47.0683 155.903 47.0683 156.002 47.0683C156.274 47.0536 156.431 46.8469 156.445 46.655C156.459 46.4336 156.445 37.9313 156.445 37.9313L158.259 37.9461C158.63 37.9608 158.73 37.6656 158.73 37.4294C158.744 37.1933 158.716 36.3371 158.716 36.3371C158.716 36.0419 158.487 35.8943 158.216 35.8943" fill="#2C383F"/>
<path d="M89.8459 44.9124C88.0895 44.9124 86.533 43.6135 86.533 41.4436C86.533 39.2442 88.218 38.0486 89.8459 38.0486C91.6594 38.0486 93.1159 39.3918 93.1159 41.4436C93.1159 43.5101 91.6594 44.9124 89.8459 44.9124ZM90.1457 35.6573C88.8606 35.6573 87.6325 36.1002 86.8757 36.971C86.5187 37.3844 86.5044 37.0891 86.5044 36.8972C86.5044 35.1997 86.5044 29.7972 86.5044 29.6496C86.5044 29.443 86.3331 29.2363 86.0475 29.2363C85.7905 29.2363 84.5767 29.2363 84.5767 29.2363C84.234 29.2363 84.1197 29.4725 84.1197 29.6496C84.1197 29.9301 84.1055 46.3885 84.1055 46.669C84.1197 46.9347 84.2911 47.1266 84.591 47.1266C84.5481 47.1266 85.7048 47.1266 86.0475 47.1118C86.3045 47.097 86.5044 46.8609 86.5044 46.6394C86.5044 46.3738 86.5044 46.2409 86.5044 46.0343C86.5044 45.8719 86.5473 45.6357 86.7472 45.8424C87.0185 46.1228 88.1752 47.3332 90.1172 47.3332C93.0302 47.3332 95.5434 45.0305 95.5434 41.5174C95.5434 37.901 93.0873 35.6573 90.1457 35.6573Z" fill="#2C383F"/>
<path d="M77.1956 19.8088C77.1956 16.6205 75.5678 14.7606 72.8118 14.7606C71.8408 14.7606 70.4557 15.1887 69.6988 16.1629C69.6274 16.2515 69.5418 16.3991 69.4561 16.3696C69.399 16.3548 69.3704 16.3105 69.3847 16.2219C69.3847 16.2219 69.3847 8.95957 69.3847 8.76768C69.3847 8.53151 69.1562 8.35437 68.9135 8.35437H67.4712C67.2428 8.33961 67.0143 8.51675 67 8.75292C67 8.88577 67 25.2409 67 25.7132C67 26.0084 67.1856 26.1413 67.3855 26.1856C67.4141 26.1856 68.9849 26.1856 69.0134 26.1856C69.2133 26.1413 69.3847 25.9789 69.3847 25.7723C69.3847 25.5951 69.3847 20.1779 69.3847 20.1779C69.3847 17.9785 71.0268 17.1814 72.3977 17.1814C73.74 17.1814 74.8109 18.2147 74.8109 19.9565C74.8109 19.9565 74.8109 25.4475 74.8109 25.7132C74.8109 26.0084 75.0537 26.1708 75.2393 26.1856C75.4107 26.1856 76.5102 26.1856 76.753 26.1856C76.9529 26.1856 77.1956 26.038 77.1956 25.7132" fill="#2C383F"/>
<path d="M119.533 40.7357C119.533 37.5474 117.905 35.6875 115.149 35.6875C114.178 35.6875 112.793 36.1156 112.036 37.0898C111.964 37.1784 111.879 37.326 111.793 37.2964C111.736 37.2817 111.707 37.2374 111.722 37.1488C111.722 37.1488 111.736 36.5732 111.736 36.2632C111.722 35.9532 111.565 35.7908 111.25 35.7908H109.808C109.565 35.7908 109.351 35.968 109.337 36.2041C109.323 36.6912 109.323 46.463 109.337 46.7139C109.351 46.9796 109.523 47.1124 109.708 47.1124C110.065 47.1272 111.122 47.1272 111.336 47.1124C111.536 47.0977 111.707 46.9206 111.707 46.6991C111.722 46.522 111.707 41.1048 111.707 41.1048C111.707 38.9054 113.349 38.1083 114.72 38.1083C116.063 38.1083 117.134 39.1416 117.134 40.8833C117.134 40.8833 117.134 46.4187 117.134 46.7139C117.134 46.9206 117.319 47.0977 117.505 47.1124C117.79 47.1272 118.933 47.1272 119.133 47.1124C119.333 47.0977 119.504 46.9058 119.504 46.6991" fill="#2C383F"/>
<path d="M131.413 40.7357C131.413 37.5474 129.786 35.6875 127.03 35.6875C126.059 35.6875 124.673 36.1156 123.917 37.0898C123.845 37.1784 123.76 37.326 123.674 37.2964C123.617 37.2817 123.588 37.2374 123.602 37.1488C123.602 37.1488 123.617 36.5732 123.617 36.2632C123.602 35.9532 123.445 35.7908 123.131 35.7908H121.689C121.446 35.7908 121.232 35.968 121.218 36.2041C121.203 36.6912 121.203 46.463 121.218 46.7139C121.232 46.9796 121.403 47.1124 121.589 47.1124C121.946 47.1272 123.003 47.1272 123.217 47.1124C123.417 47.0977 123.588 46.9206 123.588 46.6991C123.602 46.522 123.588 41.1048 123.588 41.1048C123.588 38.9054 125.23 38.1083 126.601 38.1083C127.943 38.1083 129.014 39.1416 129.014 40.8833C129.014 40.8833 129.014 46.4187 129.014 46.7139C129.014 46.9206 129.2 47.0977 129.386 47.1124C129.671 47.1272 130.814 47.1272 131.014 47.1124C131.213 47.0977 131.385 46.9058 131.385 46.6991" fill="#2C383F"/>
<path d="M68.625 42.4773C68.625 41.1636 69.4247 40.4993 70.1529 39.9532C70.1529 39.9532 70.2957 39.8498 70.4956 39.6875C70.7955 39.4513 70.9954 39.5841 71.0954 39.6875C71.2239 39.8056 73.9513 42.7873 73.9513 42.7873C74.1084 42.9644 74.0798 43.1415 73.9228 43.3187C73.1517 44.16 72.4091 44.7505 71.2239 44.7505C69.6389 44.7357 68.625 43.6286 68.625 42.4773ZM71.6237 31.4804C72.3948 31.4804 73.5229 32.2332 73.5229 33.2222C73.5229 34.034 73.1517 34.6835 72.3092 35.3478C72.3092 35.3478 71.7665 35.7611 71.5952 35.8792C71.4524 35.9677 71.1525 35.9972 70.9812 35.8349C70.7098 35.5839 69.5246 34.5359 69.5246 33.2222C69.5246 32.1004 70.4385 31.4804 71.4238 31.4804H71.6237ZM80.8769 46.5218C80.6627 46.3004 77.8639 43.2301 77.7497 43.0972C77.5641 42.8906 77.6355 42.7577 77.7068 42.6544C77.7925 42.5363 80.2058 39.7318 80.5342 39.348C80.8484 38.9789 80.777 38.6837 80.3057 38.6985C80.0915 38.6985 78.1495 38.7132 78.1495 38.7132C77.9782 38.7132 77.9068 38.728 77.7782 38.8756C77.7782 38.8756 76.2789 40.5584 76.0647 40.7798C75.8648 41.0012 75.7077 40.9864 75.4935 40.7355C75.3222 40.5436 73.1517 38.1819 73.1517 38.1819C73.0945 38.1228 72.8803 37.9014 73.1517 37.68C73.323 37.5471 73.7086 37.2224 73.7086 37.2224C75.3222 35.953 76.1075 34.6688 76.1075 33.2665C76.1075 30.7128 74.2083 28.9268 71.4809 28.9268C69.2819 28.9268 66.9543 30.4914 66.9543 33.3846C66.9543 34.9935 68.011 36.2777 68.8392 37.1634C68.8392 37.1634 68.8535 37.1634 69.0534 37.3995C69.2533 37.6209 68.8963 37.8276 68.8963 37.8276C66.9829 39.3037 66.0547 40.5288 66.0547 42.7135C66.0547 44.9866 67.7825 47.3041 71.0954 47.3041C72.7233 47.3041 74.2226 46.5808 75.6506 45.0604C75.7363 44.9866 75.8791 44.8243 76.0933 45.0309C76.3074 45.2376 77.8639 46.9498 77.8639 46.9498C77.8639 46.9498 77.9924 47.1122 78.2352 47.127H80.5342C80.5485 47.127 80.7341 47.127 80.8626 47.0384C81.0626 46.876 80.9769 46.6251 80.8769 46.5218Z" fill="#2C383F"/>
<defs>
<clipPath id="clip0_3643_63988">
<rect width="56" height="56" fill="white"/>
</clipPath>
</defs>
</svg>
